# Blender v2.78 (sub 0) OBJ File: 'mercado.blend'
# www.blender.org
mtllib mercado.mtl
o Cube
v 1.000000 -1.000000 -2.939059
v 1.000000 -1.000000 1.332213
v -1.000000 -1.000000 1.332212
v -1.000000 -1.000000 -2.939060
v 1.000000 1.000000 -1.850139
v 0.999999 1.000000 1.332213
v -1.000000 0.423476 0.999240
v -1.000000 1.000000 -1.850140
v 0.573679 1.056750 -1.406633
v 0.573679 1.000000 0.874301
v -0.573679 1.056750 -1.406634
v -0.573679 1.000000 0.874300
v 0.395256 1.263216 -1.049735
v 0.395255 1.263216 0.517402
v -0.395256 1.263216 -1.049736
v -0.395256 1.263216 0.517402
v 0.786144 -0.907388 -2.889232
v -0.790417 -0.907388 -2.889232
v 0.632328 0.693968 -2.016169
v -0.606748 0.693968 -2.016169
v 0.786144 -0.905979 -2.742793
v -0.790418 -0.905979 -2.742793
v 0.632328 0.695378 -1.869730
v -0.606748 0.695378 -1.869730
v -1.000000 -1.000000 -0.982008
v -1.000000 0.666213 -0.694247
v -4.478183 -1.000000 1.332212
v -3.645241 0.584137 0.999240
v -4.478183 -1.000000 -0.982008
v -3.645241 0.584137 -0.694247
v -1.000000 -0.706111 -0.927134
v -4.321609 -0.706111 -0.927134
v -1.000000 0.259937 -0.757164
v -3.816244 0.259937 -0.757164
v -1.142443 0.215098 -0.765053
v -1.142443 -0.661273 -0.919244
v -3.697257 0.215098 -0.765053
v -4.155710 -0.661273 -0.919244
v -1.142443 0.197362 -0.664246
v -1.142443 -0.679009 -0.818438
v -3.697257 0.197362 -0.664246
v -4.155710 -0.679009 -0.818438
v -3.063099 -0.679009 -0.818438
v -2.833873 0.197362 -0.664246
v -2.087994 -0.679009 -0.818438
v -1.973380 0.197362 -0.664246
v -2.204041 -0.679009 -0.818438
v -2.032122 0.197362 -0.664246
v -3.232614 -0.679009 -0.818438
v -2.888775 0.197362 -0.664246
v -3.063450 -0.661273 -0.919244
v -2.833873 0.214877 -0.763793
v -2.088357 -0.661273 -0.919244
v -1.973380 0.214877 -0.763793
v -2.204497 -0.661273 -0.919244
v -2.032122 0.214877 -0.763793
v -3.232284 -0.661273 -0.919244
v -2.888775 0.214877 -0.763793
v -3.244012 -0.706111 -0.927134
v -3.055991 -0.706111 -0.927134
v -2.076400 -0.706111 -0.927134
v -2.205169 -0.706111 -0.927134
v -1.420568 -0.782397 1.286474
v -1.420569 0.205872 1.044979
v -3.943199 -0.782397 1.286474
v -3.339089 0.366534 1.044979
v -1.420568 -0.808600 1.173813
v -1.420569 0.179670 0.932318
v -3.943199 -0.808600 1.173813
v -3.339089 0.340331 0.932318
v -1.000000 0.261595 -2.255144
v -1.000000 0.260766 -1.934716
v -1.000000 -0.550186 -2.692173
v -1.000000 -0.592166 -2.238216
v -1.000000 -0.670098 -1.254653
v -1.000000 0.260352 -1.017919
v -1.000000 0.215230 -1.901707
v -1.000000 -0.550629 -2.174223
v -1.000000 -0.620605 -1.291070
v -1.000000 0.214858 -1.078503
v -0.919248 0.215230 -1.901707
v -0.919248 -0.550629 -2.174223
v -0.919248 -0.620605 -1.291070
v -0.919248 0.214858 -1.078503
v -1.433299 0.584137 0.721842
v -1.433299 0.584137 -0.416849
v -3.211943 0.584137 0.721842
v -3.211942 0.584137 -0.416849
v -1.592395 0.739484 0.619989
v -1.592395 0.739484 -0.314995
v -3.052847 0.739484 0.619989
v -3.052846 0.739484 -0.314995
vn 0.0000 -1.0000 0.0000
vn -0.2005 0.6965 0.6890
vn 1.0000 0.0000 0.0000
vn -0.0964 0.0964 0.9907
vn -1.0000 -0.0000 -0.0000
vn -0.0001 0.4784 -0.8781
vn -0.7962 0.6049 0.0089
vn 0.0662 0.9978 0.0104
vn -0.6739 0.7333 0.0905
vn 0.0000 0.9919 -0.1269
vn 0.0000 1.0000 0.0000
vn 0.0000 0.8656 -0.5007
vn -0.0000 0.8048 0.5935
vn 0.7962 0.6049 0.0089
vn 0.9934 -0.1145 0.0011
vn 0.0000 0.4769 -0.8790
vn 0.0018 0.4784 -0.8781
vn 0.0000 0.4738 -0.8806
vn 0.0000 0.4787 -0.8780
vn 0.0000 1.0000 -0.0096
vn -0.0000 -1.0000 0.0096
vn -0.9954 -0.0961 0.0009
vn 0.0000 0.2057 0.9786
vn -0.8851 0.4654 -0.0003
vn 0.0000 0.1835 -0.9830
vn -0.0184 0.9891 0.1463
vn 0.0000 0.1733 -0.9849
vn -0.0026 0.1703 -0.9854
vn 0.0000 0.9849 0.1733
vn 0.0000 -0.9849 -0.1733
vn 0.8890 -0.4511 -0.0794
vn -0.9818 0.1867 0.0351
vn 0.0000 0.1747 -0.9846
vn 0.9683 -0.2456 -0.0449
vn -0.9328 0.3551 0.0609
vn 0.9918 -0.1257 -0.0239
vn 0.0000 0.9740 -0.2265
vn 0.0000 0.2317 0.9728
vn 0.0142 0.2021 0.9793
vn 0.0079 0.2183 0.9758
vn 0.8891 -0.4457 0.1037
vn -0.0813 -0.9708 0.2258
vn 0.0000 0.9969 0.0790
vn 0.0000 -1.0000 -0.0005
vn 0.0000 -0.3352 0.9421
vn 0.0000 0.2466 -0.9691
vn 0.0000 0.5483 -0.8363
vn 0.0349 0.9600 0.2780
vn 0.0900 0.9923 0.0850
vn -0.6986 0.7155 -0.0000
vn 0.0000 0.5483 0.8363
vn 0.6986 0.7155 0.0000
usemtl Material
s off
f 1//1 2//1 3//1 25//1 4//1
f 7//2 6//2 10//2 12//2
f 1//3 5//3 6//3 2//3
f 2//4 6//4 7//4 3//4
f 71//5 72//5 76//5 33//5 26//5 8//5
f 5//6 1//6 17//6 19//6
f 11//7 12//7 16//7 15//7
f 6//8 5//8 9//8 10//8
f 8//9 26//9 7//9 12//9 11//9
f 5//10 8//10 11//10 9//10
f 13//11 15//11 16//11 14//11
f 9//12 11//12 15//12 13//12
f 12//13 10//13 14//13 16//13
f 10//14 9//14 13//14 14//14
f 18//15 20//15 24//15 22//15
f 8//16 5//16 19//16 20//16
f 4//17 73//17 71//17 8//17 20//17 18//17
f 1//18 4//18 18//18 17//18
f 23//19 21//19 22//19 24//19
f 17//20 18//20 22//20 21//20
f 20//21 19//21 23//21 24//21
f 19//22 17//22 21//22 23//22
f 27//23 3//23 63//23 65//23
f 27//24 28//24 30//24 34//24 32//24 29//24
f 31//25 25//25 29//25 32//25 59//25 60//25 62//25 61//25
f 25//1 3//1 27//1 29//1
f 26//26 30//26 88//26 86//26
f 59//27 32//27 38//27 57//27
f 26//28 33//28 34//28 30//28
f 36//29 53//29 55//29 51//29 57//29 38//29 42//29 49//29 43//29 47//29 45//29 40//29
f 33//27 31//27 36//27 35//27
f 34//27 33//27 35//27 37//27
f 32//27 34//27 37//27 38//27
f 50//27 49//27 42//27 41//27
f 35//5 36//5 40//5 39//5
f 37//30 35//30 39//30 46//30 48//30 44//30 50//30 41//30
f 38//31 37//31 41//31 42//31
f 48//27 47//27 43//27 44//27
f 39//27 40//27 45//27 46//27
f 47//32 48//32 56//32 55//32
f 50//29 44//29 52//29 58//29
f 54//33 53//33 55//33 56//33
f 52//33 51//33 57//33 58//33
f 45//30 47//30 55//30 53//30
f 44//34 43//34 51//34 52//34
f 49//35 50//35 58//35 57//35
f 43//30 49//30 57//30 51//30
f 48//29 46//29 54//29 56//29
f 46//36 45//36 53//36 54//36
f 60//27 59//27 57//27 51//27
f 62//27 60//27 51//27 55//27
f 31//27 61//27 53//27 36//27
f 61//27 62//27 55//27 53//27
f 65//37 63//37 67//37 69//37
f 3//38 7//38 64//38 63//38
f 7//39 28//39 66//39 64//39
f 28//23 27//23 65//23 66//23
f 67//40 68//40 70//40 69//40
f 66//41 65//41 69//41 70//41
f 64//42 66//42 70//42 68//42
f 63//5 64//5 68//5 67//5
f 74//5 72//5 71//5 73//5
f 25//5 31//5 75//5 74//5 73//5 4//5
f 75//5 76//5 80//5 79//5
f 31//5 33//5 76//5 75//5
f 78//43 79//43 83//43 82//43
f 72//5 74//5 78//5 77//5
f 76//5 72//5 77//5 80//5
f 74//5 75//5 79//5 78//5
f 83//5 84//5 81//5 82//5
f 80//44 77//44 81//44 84//44
f 77//45 78//45 82//45 81//45
f 79//46 80//46 84//46 83//46
f 86//47 88//47 92//47 90//47
f 28//48 7//48 85//48 87//48
f 30//11 28//11 87//11 88//11
f 7//49 26//49 86//49 85//49
f 89//11 90//11 92//11 91//11
f 88//50 87//50 91//50 92//50
f 87//51 85//51 89//51 91//51
f 85//52 86//52 90//52 89//52
