# Blender v2.78 (sub 0) OBJ File: 'escuela.blend'
# www.blender.org
mtllib escuela.mtl
o Cube
v 2.701364 2.804365 -2.031848
v -2.808917 2.804365 -2.031849
v 2.989478 0.943317 4.025482
v 1.596898 0.002438 4.025481
v 1.440665 2.620006 1.645347
v 1.596898 0.604173 4.025481
v -1.697963 0.002438 4.025481
v -1.542155 2.620006 1.645347
v -1.697963 0.604173 4.025481
v 2.989479 0.604173 4.025482
v -3.097246 0.604173 4.025481
v 2.989480 0.601521 -2.288302
v -3.097244 0.590394 -2.288303
v -3.097245 0.002438 -1.325746
v -3.097245 0.597283 -1.325746
v 2.989479 0.002438 -1.325745
v 2.989479 0.602847 -1.325745
v 1.578332 0.002438 -2.288303
v 1.578332 0.595958 -2.288303
v -1.629567 0.002438 -2.288303
v -1.629567 0.593176 -2.288303
v -3.097245 0.002438 3.166830
v -3.097245 0.600728 3.166830
v 2.989479 0.002438 3.172364
v 2.989479 0.603510 3.172365
v -1.904491 0.002438 4.163304
v -3.303774 0.002438 4.163304
v -1.904491 0.604173 4.163304
v -3.303774 0.604173 4.163304
v -3.303774 0.002438 3.304653
v -3.303774 0.600728 3.304653
v 3.182863 0.002438 3.301416
v 3.182863 0.002438 4.154533
v 1.790282 0.604173 4.154532
v 3.182863 0.604173 4.154533
v 3.182863 0.603510 3.301417
v 3.192211 0.002438 -2.423593
v 3.192212 0.601521 -2.423592
v 3.192211 0.002438 -1.461035
v 3.192211 0.602847 -1.461035
v 1.781064 0.002438 -2.423593
v 1.781064 0.595958 -2.423593
v -1.858611 0.002438 -2.441153
v -3.326288 0.002438 -2.441153
v -3.326289 0.002438 -1.478595
v -3.326289 0.597283 -1.478595
v -3.326289 0.590394 -2.441153
v -1.858611 0.593176 -2.441152
v 2.701362 2.804365 -0.684983
v -2.808918 2.804365 -0.684984
v -2.226923 2.804365 -0.298313
v -0.834822 2.804365 -1.697371
v 0.586862 2.804365 -1.697369
v 2.019990 2.804365 -0.298310
v 0.689478 2.804365 1.273731
v -0.786056 2.804365 1.273728
v -2.226923 3.028122 -0.298313
v -0.834822 3.028122 -1.697371
v 0.586862 3.028122 -1.697369
v 2.019990 3.028122 -0.298310
v 0.689478 3.028122 1.273731
v -0.786056 3.028122 1.273728
v 2.701361 2.804365 1.645348
v -3.097246 0.943317 4.025481
v -2.808918 2.804365 1.645347
v -1.697963 0.943317 4.025481
v 1.440665 2.804365 1.645347
v 2.701362 2.804365 0.726049
v -1.542155 2.804365 1.645347
v -2.808918 2.804365 0.726048
v 1.596898 0.110210 4.025481
v -1.697963 0.110210 4.025481
v 1.596898 0.110210 2.287538
v -1.697963 0.110210 2.287538
v 1.790282 0.002438 4.154532
v 1.596897 0.943317 4.025481
v 1.440665 2.620006 2.136743
v -1.542155 2.620006 2.136742
v 1.440665 2.804365 1.877294
v -1.542155 2.804365 1.877294
v 1.596898 -0.303609 4.025481
v -1.697963 -0.303609 4.025481
v -3.097245 -0.303609 3.166830
v -3.097245 -0.303609 -1.325746
v 1.578332 -0.303609 -2.288303
v -1.629567 -0.303609 -2.288303
v 2.989479 -0.303609 -1.325745
v 2.989479 -0.303609 3.172364
v -1.904491 -0.303609 4.163304
v -3.303774 -0.303609 4.163304
v -3.303774 -0.303609 3.304653
v 3.182863 -0.303609 3.301416
v 3.182863 -0.303609 4.154533
v 3.192211 -0.303609 -2.423593
v 3.192211 -0.303609 -1.461035
v 1.781064 -0.303609 -2.423593
v -1.858611 -0.303609 -2.441153
v -3.326288 -0.303609 -2.441153
v -3.326289 -0.303609 -1.478595
v 1.790282 -0.303609 4.154532
vn -0.0001 0.1006 -0.9949
vn 0.9948 0.1015 -0.0035
vn 0.5551 -0.0000 0.8318
vn 0.0000 1.0000 0.0000
vn -0.0013 1.0000 -0.0019
vn -0.5551 -0.0000 -0.8318
vn -0.0000 -0.0000 1.0000
vn 0.5551 0.0000 -0.8318
vn 0.0014 1.0000 -0.0021
vn -0.5551 -0.0000 0.8318
vn -0.0024 1.0000 -0.0036
vn -1.0000 -0.0000 -0.0000
vn 1.0000 0.0000 0.0000
vn 0.0000 0.0000 -1.0000
vn 0.9989 -0.0399 0.0233
vn 0.0002 1.0000 -0.0004
vn 0.7633 0.0000 0.6460
vn -0.7372 0.0000 0.6757
vn 0.0000 -1.0000 -0.0000
vn -0.7089 0.0000 -0.7053
vn 0.6985 0.0000 -0.7156
vn -0.0000 0.7878 0.6160
vn -0.9989 -0.0400 0.0234
vn -0.9948 0.1016 -0.0036
vn -0.0000 0.2479 0.9688
vn -0.0000 0.8152 0.5792
usemtl Material
s off
f 19//1 18//1 20//1 21//1 13//1 2//1 1//1 12//1
f 16//2 17//2 12//2 1//2 49//2 68//2 63//2 3//2 10//2 25//2 24//2
f 17//3 16//3 39//3 40//3
f 50//4 70//4 56//4 51//4 52//4
f 72//4 71//4 73//4 74//4
f 9//5 11//5 23//5 31//5 29//5 28//5
f 23//6 22//6 30//6 31//6
f 3//7 76//7 6//7 10//7
f 21//8 20//8 43//8 48//8
f 13//9 21//9 48//9 47//9 46//9 15//9
f 14//10 15//10 46//10 45//10
f 12//11 17//11 40//11 38//11 42//11 19//11
f 26//7 28//7 29//7 27//7
f 27//12 29//12 31//12 30//12
f 59//4 58//4 57//4 62//4 61//4 60//4
f 7//3 72//3 9//3 28//3 26//3
f 33//7 35//7 34//7 75//7
f 32//13 36//13 35//13 33//13
f 24//8 25//8 36//8 32//8
f 42//14 38//14 37//14 41//14
f 37//13 38//13 40//13 39//13
f 18//6 19//6 42//6 41//6
f 32//13 33//13 93//13 92//13
f 45//12 46//12 47//12 44//12
f 47//14 48//14 43//14 44//14
f 9//15 72//15 74//15 8//15 69//15 66//15
f 1//4 2//4 50//4 49//4
f 10//16 6//16 34//16 35//16 36//16 25//16
f 55//17 54//17 60//17 61//17
f 51//18 56//18 62//18 57//18
f 70//19 68//19 55//19 56//19
f 69//4 80//4 79//4 67//4 63//4 68//4 70//4 65//4
f 68//4 49//4 53//4 54//4 55//4
f 52//20 51//20 57//20 58//20
f 54//21 53//21 59//21 60//21
f 56//7 55//7 61//7 62//7
f 53//14 52//14 58//14 59//14
f 66//22 69//22 65//22 64//22
f 3//22 63//22 67//22 76//22
f 71//23 6//23 76//23 67//23 5//23 73//23
f 63//14 5//14 67//14
f 8//14 65//14 69//14
f 22//24 23//24 11//24 64//24 65//24 70//24 50//24 2//24 13//24 15//24 14//24
f 4//7 71//7 72//7 7//7
f 74//25 73//25 5//25 8//25
f 6//10 71//10 4//10 75//10 34//10
f 9//7 66//7 64//7 11//7
f 78//26 77//26 79//26 80//26
f 69//12 8//12 78//12 80//12
f 8//19 5//19 77//19 78//19
f 5//13 67//13 79//13 77//13
f 94//19 95//19 87//19 88//19 92//19 93//19 100//19 81//19 82//19 89//19 90//19 91//19 83//19 84//19 99//19 98//19 97//19 86//19 85//19 96//19
f 75//10 4//10 81//10 100//10
f 39//3 16//3 87//3 95//3
f 22//12 14//12 84//12 83//12
f 37//13 39//13 95//13 94//13
f 27//12 30//12 91//12 90//12
f 18//6 41//6 96//6 85//6
f 14//10 45//10 99//10 84//10
f 16//13 24//13 88//13 87//13
f 44//14 43//14 97//14 98//14
f 41//14 37//14 94//14 96//14
f 43//8 20//8 86//8 97//8
f 45//12 44//12 98//12 99//12
f 30//6 22//6 83//6 91//6
f 33//7 75//7 100//7 93//7
f 26//7 27//7 90//7 89//7
f 24//8 32//8 92//8 88//8
f 4//7 7//7 82//7 81//7
f 7//3 26//3 89//3 82//3
f 20//14 18//14 85//14 86//14
