# Blender v2.78 (sub 0) OBJ File: 'torre_vigilancia.blend'
# www.blender.org
mtllib torre_vigilancia.mtl
o Cube
v 1.391158 0.006011 -1.086036
v 1.391158 0.006011 1.083744
v 1.391157 6.350440 1.083746
v 1.391158 6.350440 -1.086035
v 1.532885 6.557515 -1.262573
v 1.532885 8.196985 -1.262573
v 1.532885 6.557515 1.261953
v 1.532885 8.196985 1.261954
v 1.217151 8.505479 -1.132942
v 1.217150 8.505479 1.132323
v 0.922186 6.350440 -1.532025
v 0.922185 6.350440 1.529734
v 0.922185 0.006011 -1.532026
v 0.922185 0.006011 1.529734
v 0.981791 6.557515 -1.781480
v 0.981789 6.557515 1.780858
v 0.981791 8.196985 -1.781479
v 0.981789 8.196985 1.780858
v 0.886589 8.505479 -1.446436
v 0.886588 8.505479 1.445815
v 0.886589 8.505479 -0.843064
v 0.886588 8.505479 0.842443
v 0.616343 8.505479 -1.059777
v 0.616343 8.505479 1.059156
v 0.808291 8.128933 -0.662136
v 0.808291 8.128933 0.661415
v 0.589694 8.128933 -0.832311
v 0.589694 8.128933 0.831590
v 0.517853 0.757667 -0.549446
v 0.517853 0.757667 0.547156
v 0.336739 0.757667 -0.690442
v 0.336738 0.757667 0.688151
v 1.391158 0.006011 0.658137
v 1.391158 6.350440 0.658138
v 1.391158 0.006011 -0.646640
v 1.391158 6.350440 -0.646638
v 0.758886 0.006011 -0.646640
v 0.758886 0.006011 0.658137
v 0.758885 6.350440 -0.646638
v 0.758885 6.350440 0.658138
v 0.758885 3.017150 0.658138
v 0.758886 3.017150 -0.646639
v 0.758885 5.241348 0.658138
v 0.758886 5.241348 -0.646639
v 0.758885 5.553513 0.658138
v 0.758886 5.553513 -0.646639
v 0.758885 3.321743 0.658138
v 0.758886 3.321743 -0.646639
v 0.758886 1.886668 0.658137
v 0.758886 1.886668 -0.646639
v 0.758886 0.771696 0.658137
v 0.758886 0.771696 -0.646640
v 0.758886 2.206696 0.658137
v 0.758886 2.206696 -0.646639
v 0.758885 4.439409 0.658138
v 0.758886 4.439409 -0.646639
v 0.758885 4.127958 0.658138
v 0.758886 4.127958 -0.646639
v 0.758886 1.074617 0.658137
v 0.758886 1.074617 -0.646640
v 1.391039 3.321743 0.658138
v 1.391039 3.017150 0.658138
v 1.391039 3.321743 -0.646639
v 1.391039 3.017150 -0.646639
v 1.391039 5.553513 0.658138
v 1.391039 5.241348 0.658138
v 1.391039 5.553513 -0.646639
v 1.391039 5.241348 -0.646639
v 1.391039 2.206696 0.658138
v 1.391039 1.886668 0.658137
v 1.391039 2.206696 -0.646639
v 1.391039 1.886668 -0.646639
v 1.391039 1.074617 0.658137
v 1.391039 0.771696 0.658137
v 1.391039 1.074617 -0.646639
v 1.391039 0.771696 -0.646640
v 1.391039 4.439409 -0.646639
v 1.391039 4.439409 0.658138
v 1.391039 4.127958 0.658138
v 1.391039 4.127958 -0.646639
v 1.391039 3.321743 0.768870
v 1.391039 3.017150 0.768870
v 1.391039 3.321743 -0.757372
v 1.391039 3.017150 -0.757372
v 1.391039 5.553514 -0.757371
v 1.391039 5.241348 -0.757371
v 1.391039 2.206696 0.768870
v 1.391039 1.886668 0.768870
v 1.391039 2.206696 -0.757372
v 1.391039 1.886668 -0.757372
v 1.391039 0.771696 0.768869
v 1.391039 0.771696 -0.757372
v 1.391039 4.439409 -0.757371
v 1.391039 4.439409 0.768871
v 1.391039 4.127958 0.768871
v 1.391039 4.127958 -0.757371
v 1.391039 5.553514 0.768871
v 1.391039 5.241348 0.768871
v 1.391039 1.074617 0.768870
v 1.391039 1.074617 -0.757372
v 1.517206 3.321743 0.768870
v 1.517206 3.017150 0.768870
v 1.517206 3.321743 -0.757372
v 1.517206 3.017150 -0.757372
v 1.517206 5.553514 0.768871
v 1.517206 5.241348 0.768871
v 1.517206 5.553514 -0.757371
v 1.517206 5.241348 -0.757371
v 1.517206 2.206696 0.768870
v 1.517206 1.886668 0.768870
v 1.517206 2.206696 -0.757372
v 1.517206 1.886668 -0.757372
v 1.517206 1.074617 0.768870
v 1.517206 0.771696 0.768869
v 1.517206 1.074617 -0.757372
v 1.517206 0.771696 -0.757372
v 1.517206 4.439409 -0.757371
v 1.517206 4.439409 0.768871
v 1.517206 4.127958 0.768871
v 1.517206 4.127958 -0.757371
v -1.391158 0.006011 -1.086036
v -1.391158 0.006011 1.083744
v -1.391157 6.350440 1.083746
v -1.391158 6.350440 -1.086035
v -1.532885 6.557515 -1.262573
v -1.532885 8.196985 -1.262573
v -1.532885 6.557515 1.261953
v -1.532885 8.196985 1.261954
v -1.217151 8.505479 -1.132942
v -1.217150 8.505479 1.132323
v -0.922186 6.350440 -1.532025
v -0.922185 6.350440 1.529734
v -0.922185 0.006011 -1.532026
v -0.922185 0.006011 1.529734
v -0.981791 6.557515 -1.781480
v -0.981789 6.557515 1.780858
v -0.981791 8.196985 -1.781479
v -0.981789 8.196985 1.780858
v -0.886589 8.505479 -1.446436
v -0.886588 8.505479 1.445815
v -0.886589 8.505479 -0.843064
v -0.886588 8.505479 0.842443
v -0.616343 8.505479 -1.059777
v -0.616343 8.505479 1.059156
v -0.808291 8.128933 -0.662136
v -0.808291 8.128933 0.661415
v -0.589694 8.128933 -0.832311
v -0.589694 8.128933 0.831590
v -0.517853 0.757667 -0.549446
v -0.517853 0.757667 0.547156
v -0.336739 0.757667 -0.690442
v -0.336738 0.757667 0.688151
v -1.391158 0.006011 0.658137
v -1.391157 6.350440 0.658138
v -1.391158 0.006011 -0.646640
v -1.391158 6.350440 -0.646638
v -0.758886 0.006011 -0.646640
v -0.758886 0.006011 0.658137
v -0.758885 6.350440 -0.646638
v -0.758885 6.350440 0.658138
v -0.758885 3.017150 0.658138
v -0.758886 3.017150 -0.646639
v -0.758885 5.241348 0.658138
v -0.758886 5.241348 -0.646639
v -0.758885 5.553513 0.658138
v -0.758886 5.553513 -0.646639
v -0.758885 3.321743 0.658138
v -0.758886 3.321743 -0.646639
v -0.758886 1.886668 0.658137
v -0.758886 1.886668 -0.646639
v -0.758886 0.771696 0.658137
v -0.758886 0.771696 -0.646640
v -0.758886 2.206696 0.658137
v -0.758886 2.206696 -0.646639
v -0.758885 4.439409 0.658138
v -0.758886 4.439409 -0.646639
v -0.758885 4.127958 0.658138
v -0.758886 4.127958 -0.646639
v -0.758886 1.074617 0.658137
v -0.758886 1.074617 -0.646640
v -1.391039 3.321743 0.658138
v -1.391039 3.017150 0.658138
v -1.391039 3.321743 -0.646639
v -1.391039 3.017150 -0.646639
v -1.391039 5.271586 0.658138
v -1.391039 5.241348 0.658138
v -1.391039 5.553513 -0.646639
v -1.391039 5.241348 -0.646639
v -1.391039 2.206696 0.658138
v -1.391039 1.886668 0.658137
v -1.391039 2.206696 -0.646639
v -1.391039 1.886668 -0.646639
v -1.391039 1.074617 0.658137
v -1.391039 0.771696 0.658137
v -1.391039 1.074617 -0.646639
v -1.391039 0.771696 -0.646640
v -1.391039 4.439409 -0.646639
v -1.391039 4.439409 0.658138
v -1.391039 4.127958 0.658138
v -1.391039 4.127958 -0.646639
v -1.391039 5.553514 0.768871
v -1.391039 5.553514 -0.757371
v -1.391039 1.886668 -0.757372
v -1.391039 4.439409 -0.757371
v -1.391039 4.127958 -0.757371
v -1.391039 3.321743 0.768870
v -1.391039 3.017150 0.768870
v -1.391039 3.321743 -0.757372
v -1.391039 3.017150 -0.757372
v -1.391039 5.241348 0.768871
v -1.391039 5.241348 -0.757371
v -1.391039 2.206696 0.768870
v -1.391039 1.886668 0.768870
v -1.391039 2.206696 -0.757372
v -1.391039 1.074617 0.768870
v -1.391039 0.771696 0.768869
v -1.391039 1.074617 -0.757372
v -1.391039 0.771696 -0.757372
v -1.391039 4.439409 0.768871
v -1.391039 4.127958 0.768871
v -1.517206 3.321743 0.768870
v -1.517206 3.017150 0.768870
v -1.517206 3.321743 -0.757372
v -1.517206 3.017150 -0.757372
v -1.517206 5.553514 0.768871
v -1.517206 5.241348 0.768871
v -1.517206 5.553514 -0.757371
v -1.517206 5.241348 -0.757371
v -1.517206 2.206696 0.768870
v -1.517206 1.886668 0.768870
v -1.517206 2.206696 -0.757372
v -1.517206 1.886668 -0.757372
v -1.517206 1.074617 0.768870
v -1.517206 0.771696 0.768869
v -1.517206 1.074617 -0.757372
v -1.517206 0.771696 -0.757372
v -1.517206 4.439409 -0.757371
v -1.517206 4.439409 0.768871
v -1.517206 4.127958 0.768871
v -1.517206 4.127958 -0.757371
v 1.391158 -0.466957 -1.086036
v 0.922185 -0.466957 -1.532026
v 1.391158 -0.466957 1.083744
v 0.922185 -0.466957 1.529734
v -1.391158 -0.466957 -1.086036
v -0.922185 -0.466957 -1.532026
v -1.391158 -0.466957 1.083744
v -0.922185 -0.466957 1.529734
v -1.391158 -0.466957 0.658137
v -1.391158 -0.466957 -0.646640
vn 0.0000 -0.7694 -0.6387
vn 0.4652 -0.7360 0.4918
vn 0.4843 0.7088 0.5129
vn 0.0000 0.5172 -0.8558
vn 0.4843 0.7088 -0.5129
vn 0.0000 -0.7715 0.6362
vn 0.6855 0.0000 0.7281
vn 0.6891 0.0000 -0.7246
vn 0.6891 -0.0000 0.7246
vn 0.4666 -0.7342 -0.4933
vn 0.6855 0.0000 -0.7280
vn 0.0000 1.0000 0.0000
vn 0.6989 0.7153 0.0000
vn 0.0000 0.0000 -1.0000
vn 0.8252 -0.5648 0.0000
vn 1.0000 0.0000 0.0000
vn -0.9791 0.2036 -0.0000
vn -0.6139 0.0364 -0.7886
vn 0.0000 0.0192 0.9998
vn -0.5524 0.4557 -0.6980
vn -0.5525 0.4555 0.6980
vn 0.0000 -0.0000 1.0000
vn -0.9992 0.0394 -0.0000
vn 0.0000 0.7357 0.6774
vn -0.6139 0.0362 0.7886
vn 0.0000 -1.0000 0.0000
vn -1.0000 -0.0000 0.0000
vn 0.0000 0.7357 -0.6774
vn -0.4652 -0.7360 0.4918
vn -0.4843 0.7088 0.5129
vn -0.4843 0.7088 -0.5129
vn -0.6855 0.0000 0.7281
vn -0.6891 0.0000 -0.7246
vn -0.6891 -0.0000 0.7246
vn -0.4666 -0.7342 -0.4933
vn -0.6855 0.0000 -0.7280
vn -0.6989 0.7153 0.0000
vn -0.8252 -0.5648 0.0000
vn 0.9791 0.2036 -0.0000
vn 0.6139 0.0364 -0.7886
vn 0.5524 0.4557 -0.6980
vn 0.5525 0.4555 0.6980
vn 0.9992 0.0394 -0.0000
vn 0.6139 0.0362 0.7886
vn -0.2164 0.9706 0.1049
vn 0.0000 0.5171 0.8559
vn 0.0000 0.0195 -0.9998
usemtl Material
s off
f 131//1 135//1 15//1 11//1
f 12//2 3//2 7//2 16//2
f 18//3 8//3 10//3 20//3
f 28//4 148//4 144//4 24//4
f 6//5 17//5 19//5 9//5
f 16//6 136//6 132//6 12//6
f 7//7 8//7 18//7 16//7
f 4//8 1//8 13//8 11//8
f 2//9 3//9 12//9 14//9
f 4//10 11//10 15//10 5//10
f 6//11 5//11 15//11 17//11
f 1//12 35//12 33//12 2//12
f 8//13 6//13 9//13 10//13
f 131//14 11//14 13//14 133//14
f 3//15 34//15 36//15 4//15 5//15 7//15
f 33//16 34//16 3//16 2//16
f 5//16 6//16 8//16 7//16
f 22//17 21//17 25//17 26//17
f 28//18 26//18 30//18 32//18
f 147//19 151//19 31//19 27//19
f 24//20 22//20 26//20 28//20
f 137//14 17//14 15//14 135//14
f 21//21 23//21 27//21 25//21
f 136//22 16//22 18//22 138//22
f 26//23 25//23 29//23 30//23
f 20//24 140//24 138//24 18//24
f 25//25 27//25 31//25 29//25
f 34//14 33//14 38//14 51//14 59//14 49//14 53//14 41//14 47//14 57//14 55//14 43//14 45//14 40//14
f 1//16 4//16 36//16 35//16
f 46//16 39//16 40//16 45//16
f 35//22 36//22 39//22 46//22 44//22 56//22 58//22 48//22 42//22 54//22 50//22 60//22 52//22 37//22
f 36//26 34//26 40//26 39//26
f 54//16 42//16 41//16 53//16
f 56//16 44//16 43//16 55//16
f 59//22 51//22 74//22 73//22
f 47//22 41//22 62//22 61//22
f 60//16 50//16 49//16 59//16
f 37//16 52//16 51//16 38//16
f 60//12 59//12 73//12 75//12
f 49//26 50//26 72//26 70//26
f 48//16 58//16 57//16 47//16
f 50//14 54//14 71//14 72//14
f 61//27 62//27 82//27 81//27
f 63//22 61//22 81//22 83//22
f 72//27 71//27 69//27 70//27 88//27 87//27 89//27 90//27
f 65//27 66//27 98//27 97//27 85//27 86//27 68//27 67//27
f 74//22 76//22 92//22 91//22
f 46//12 45//12 65//12 67//12
f 56//12 55//12 78//12 77//12
f 42//14 48//14 63//14 64//14
f 52//14 60//14 75//14 76//14
f 55//22 57//22 79//22 78//22
f 41//26 42//26 64//26 62//26
f 51//26 52//26 76//26 74//26
f 58//14 56//14 77//14 80//14
f 45//22 43//22 66//22 65//22
f 48//12 47//12 61//12 63//12
f 44//14 46//14 67//14 68//14
f 53//22 49//22 70//22 69//22
f 68//26 86//26 108//26 106//26 98//26 66//26 43//26 44//26
f 54//12 53//12 69//12 71//12
f 77//22 78//22 94//22 93//22
f 64//27 63//27 83//27 84//27
f 78//27 79//27 95//27 94//27
f 62//22 64//22 84//22 82//22
f 80//27 77//27 93//27 96//27
f 70//22 72//22 90//22 88//22
f 73//27 74//27 91//27 99//27
f 134//22 14//22 12//22 132//22
f 75//12 73//12 99//12 100//12
f 76//27 75//27 100//27 92//27
f 87//22 88//22 110//22 109//22
f 93//12 94//12 118//12 117//12
f 81//22 82//22 102//22 101//22
f 83//12 81//12 101//12 103//12
f 89//12 87//12 109//12 111//12
f 108//16 107//16 105//16 106//16
f 104//16 103//16 101//16 102//16
f 112//16 111//16 109//16 110//16
f 120//16 117//16 118//16 119//16
f 116//16 115//16 113//16 114//16
f 84//14 83//14 103//14 104//14
f 94//22 95//22 119//22 118//22
f 90//14 89//14 111//14 112//14
f 82//26 84//26 104//26 102//26
f 96//14 93//14 117//14 120//14
f 88//26 90//26 112//26 110//26
f 97//22 98//22 106//22 105//22
f 137//28 139//28 19//28 17//28
f 99//22 91//22 114//22 113//22
f 86//14 85//14 107//14 108//14
f 100//12 99//12 113//12 115//12
f 92//14 100//14 115//14 116//14
f 140//12 20//12 22//12 24//12 144//12 142//12 141//12 143//12 23//12 21//12 9//12 19//12 139//12 129//12 130//12
f 91//26 92//26 116//26 114//26
f 85//12 97//12 105//12 107//12
f 132//29 136//29 127//29 123//29
f 138//30 140//30 130//30 128//30
f 126//31 129//31 139//31 137//31
f 127//32 136//32 138//32 128//32
f 124//33 131//33 133//33 121//33
f 122//34 134//34 132//34 123//34
f 124//35 125//35 135//35 131//35
f 126//36 137//36 135//36 125//36
f 133//14 13//14 242//14 246//14
f 128//37 130//37 129//37 126//37
f 123//38 127//38 125//38 124//38 156//38 154//38
f 153//27 122//27 123//27 154//27
f 125//27 127//27 128//27 126//27
f 142//39 146//39 145//39 141//39
f 148//40 152//40 150//40 146//40
f 144//41 148//41 146//41 142//41
f 141//42 145//42 147//42 143//42
f 149//12 150//12 152//12 32//12 30//12 29//12 31//12 151//12
f 146//43 150//43 149//43 145//43
f 145//44 149//44 151//44 147//44
f 154//14 160//14 165//14 163//14 175//14 177//14 167//14 161//14 173//14 169//14 179//14 171//14 158//14 153//14
f 121//27 155//27 156//27 124//27
f 166//27 165//27 160//27 159//27
f 155//22 157//22 172//22 180//22 170//22 174//22 162//22 168//22 178//22 176//22 164//22 166//22 159//22 156//22
f 156//26 159//26 160//26 154//26
f 174//27 173//27 161//27 162//27
f 176//27 175//27 163//27 164//27
f 179//22 193//22 194//22 171//22
f 167//22 181//22 182//22 161//22
f 180//27 179//27 169//27 170//27
f 157//27 158//27 171//27 172//27
f 180//12 195//12 193//12 179//12
f 169//26 190//26 192//26 170//26
f 168//27 167//27 177//27 178//27
f 170//14 192//14 191//14 174//14
f 181//16 206//16 207//16 182//16
f 183//12 208//12 206//12 181//12
f 212//16 213//16 190//16 189//16 191//16 192//16 203//16 214//16
f 188//16 211//16 202//16 201//16 210//16 186//16 185//16 187//16
f 194//12 216//12 218//12 196//12
f 166//45 187//45 185//45 165//45
f 176//12 197//12 198//12 175//12
f 162//14 184//14 183//14 168//14
f 172//14 196//14 195//14 180//14
f 175//22 198//22 199//22 177//22
f 161//26 182//26 184//26 162//26
f 171//26 194//26 196//26 172//26
f 178//14 200//14 197//14 176//14
f 165//22 185//22 186//22 163//22
f 168//12 183//12 181//12 167//12
f 80//26 96//26 120//26 119//26 95//26 79//26 57//26 58//26
f 164//14 188//14 187//14 166//14
f 173//22 189//22 190//22 169//22
f 174//12 191//12 189//12 173//12
f 197//26 204//26 219//26 198//26
f 184//16 209//16 208//16 183//16
f 198//16 219//16 220//16 199//16
f 9//12 21//12 22//12 20//12 10//12
f 182//12 207//12 209//12 184//12
f 200//16 205//16 204//16 197//16
f 190//12 213//12 203//12 192//12
f 143//46 147//46 27//46 23//46
f 220//26 239//26 240//26 205//26 200//26 178//26 177//26 199//26
f 193//16 215//16 216//16 194//16
f 195//12 217//12 215//12 193//12
f 196//16 218//16 217//16 195//16
f 212//22 229//22 230//22 213//22
f 204//12 237//12 238//12 219//12
f 206//22 221//22 222//22 207//22
f 208//12 223//12 221//12 206//12
f 214//12 231//12 229//12 212//12
f 32//47 152//47 148//47 28//47
f 228//27 226//27 225//27 227//27
f 224//27 222//27 221//27 223//27
f 232//27 230//27 229//27 231//27
f 240//27 239//27 238//27 237//27
f 236//27 234//27 233//27 235//27
f 209//14 224//14 223//14 208//14
f 219//22 238//22 239//22 220//22
f 203//14 232//14 231//14 214//14
f 207//26 222//26 224//26 209//26
f 205//14 240//14 237//14 204//14
f 213//26 230//26 232//26 203//26
f 201//22 225//22 226//22 210//22
f 215//22 233//22 234//22 216//22
f 211//14 228//14 227//14 202//14
f 217//12 235//12 233//12 215//12
f 218//14 236//14 235//14 217//14
f 186//26 210//26 226//26 228//26 211//26 188//26 164//26 163//26
f 216//26 234//26 236//26 218//26
f 202//12 227//12 225//12 201//12
f 242//26 241//26 243//26 244//26 248//26 247//26 249//26 250//26 245//26 246//26
f 2//9 14//9 244//9 243//9
f 122//27 153//27 249//27 247//27
f 1//16 2//16 243//16 241//16
f 155//27 121//27 245//27 250//27
f 121//33 133//33 246//33 245//33
f 153//27 155//27 250//27 249//27
f 14//22 134//22 248//22 244//22
f 134//34 122//34 247//34 248//34
f 13//8 1//8 241//8 242//8
